<svg width="600" height="500" viewBox="0 0 638 533" fill="none" xmlns="http://www.w3.org/2000/svg">
<path d="M637.372 118.725C637.372 130.193 623.081 162.499 616.562 162.499C609.663 162.499 595.742 130.193 595.742 118.725C595.742 107.242 605.063 97.9368 616.562 97.9368C628.051 97.9368 637.372 107.246 637.372 118.725Z" fill="#00A5E6"/>
<path opacity="0.8" d="M624.365 117.627C624.365 121.94 620.869 125.431 616.559 125.431C612.242 125.431 608.745 121.926 608.745 117.627C608.745 113.325 612.242 109.824 616.559 109.824C620.869 109.824 624.365 113.321 624.365 117.627Z" fill="white"/>
<path d="M340.388 268.786C337.111 268.786 334.458 266.135 334.458 262.87V256.955C334.458 253.68 337.111 251.032 340.388 251.032C343.665 251.032 346.317 253.677 346.317 256.955V262.87C346.313 266.138 343.665 268.786 340.388 268.786Z" fill="#00A5E6"/>
<path d="M340.388 238.059C337.111 238.059 334.458 235.414 334.458 232.143V224.409C334.458 222.57 334.574 220.765 334.818 218.974C335.247 215.738 338.255 213.498 341.477 213.891C344.719 214.316 347.001 217.299 346.572 220.539C346.397 221.814 346.317 223.106 346.317 224.413V232.147C346.313 235.414 343.665 238.059 340.388 238.059ZM351.988 204.147C350.379 204.147 348.781 203.499 347.612 202.228C345.403 199.824 345.563 196.079 347.985 193.873C351.562 190.588 355.649 187.989 360.119 186.129C363.155 184.864 366.614 186.3 367.867 189.32C369.126 192.334 367.692 195.804 364.67 197.047C361.473 198.378 358.556 200.252 355.987 202.604C354.85 203.635 353.412 204.147 351.988 204.147ZM585.667 194.814H573.243C569.963 194.814 567.31 192.166 567.31 188.899C567.31 185.624 569.963 182.976 573.243 182.976H585.667C588.944 182.976 591.596 185.62 591.596 188.899C591.596 192.166 588.944 194.814 585.667 194.814ZM548.403 194.814H535.979C532.702 194.814 530.05 192.166 530.05 188.899C530.05 185.624 532.702 182.976 535.979 182.976H548.403C551.68 182.976 554.332 185.62 554.332 188.899C554.332 192.166 551.68 194.814 548.403 194.814ZM511.131 194.814H498.707C495.43 194.814 492.778 192.166 492.778 188.899C492.778 185.624 495.43 182.976 498.707 182.976H511.131C514.408 182.976 517.06 185.62 517.06 188.899C517.057 192.166 514.408 194.814 511.131 194.814ZM473.856 194.814H461.429C458.152 194.814 455.5 192.166 455.5 188.899C455.5 185.624 458.152 182.976 461.429 182.976H473.856C477.133 182.976 479.782 185.62 479.782 188.899C479.782 192.166 477.13 194.814 473.856 194.814ZM436.578 194.814H424.151C420.874 194.814 418.221 192.166 418.221 188.899C418.221 185.624 420.874 182.976 424.151 182.976H436.578C439.855 182.976 442.507 185.62 442.507 188.899C442.507 192.166 439.858 194.814 436.578 194.814ZM399.303 194.814H386.879C383.613 194.814 380.95 192.166 380.95 188.899C380.95 185.624 383.613 182.976 386.879 182.976H399.303C402.58 182.976 405.236 185.62 405.236 188.899C405.236 192.166 402.58 194.814 399.303 194.814Z" fill="#00A5E6"/>
<path d="M616.552 194.449H610.623C607.342 194.449 604.693 191.801 604.693 188.533C604.693 185.258 607.342 182.611 610.623 182.611H616.552C619.829 182.611 622.481 185.255 622.481 188.533C622.481 191.801 619.829 194.449 616.552 194.449Z" fill="#00A5E6"/>
<path d="M369.451 140.237C356.238 141.533 343.535 139.094 332.361 133.785C325.947 130.74 300.157 152.329 294.957 147.546C289.757 142.759 305.147 111.607 301.56 105.423C296.695 97.0066 293.512 87.461 292.493 77.1698C288.693 38.5344 316.971 4.14574 355.67 0.344902C394.372 -3.44548 428.82 24.7803 432.631 63.4123C436.438 102.044 408.15 136.436 369.451 140.237Z" fill="#00A5E6"/>
<path d="M387.668 78.4971C387.668 85.0049 382.328 90.3316 375.809 90.3316H328.62C322.101 90.3316 316.761 85.0014 316.761 78.4971V41.0148C316.761 34.5106 322.101 29.1838 328.62 29.1838H375.809C382.328 29.1838 387.668 34.5106 387.668 41.0148V78.4971Z" fill="#004178"/>
<path opacity="0.6" d="M342.181 29.1838V47.4355C342.181 50.6859 344.129 51.5116 346.488 49.2819L348.065 47.7943C350.438 45.5612 354.316 45.5612 356.678 47.7943L358.256 49.2819C360.629 51.5116 362.562 50.6859 362.562 47.4355V29.1838H342.181Z" fill="#E8E7EF"/>
<path d="M416.382 80.8417C416.382 92.8992 406.6 102.664 394.518 102.664C382.454 102.664 372.658 92.8957 372.658 80.8417C372.658 68.7877 382.454 59.0157 394.518 59.0157C406.6 59.0157 416.382 68.7877 416.382 80.8417Z" fill="#F8F8FA"/>
<g opacity="0.7">
<path opacity="0.7" d="M400.416 87.6526C400.06 87.6526 399.701 87.5829 399.341 87.4436L393.447 85.1582C392.313 84.7157 391.559 83.6148 391.559 82.4025V70.7074C391.559 69.0734 392.892 67.7426 394.522 67.7426C396.169 67.7426 397.488 69.0734 397.488 70.7074V80.3784L401.491 81.9322C403.009 82.5174 403.773 84.2419 403.17 85.7644C402.719 86.9349 401.596 87.6526 400.416 87.6526Z" fill="#4D4D64"/>
</g>
<path d="M156.501 239.003H279.141C292.193 239.003 302.854 248.998 302.854 261.23C302.854 273.461 302.854 283.463 302.854 283.463H156.501V239.003Z" fill="#004178"/>
<path d="M176.858 262.644V490.983H0V238.968H153.141C166.182 238.968 176.858 249.67 176.858 262.644Z" fill="#00A5E6"/>
<path d="M176.858 429.658H0V490.98H176.858V429.658Z" fill="#004178"/>
<path d="M285.035 490.973H408.52C421.558 490.973 432.237 480.312 432.237 467.297V423.171C432.237 410.142 427.522 389.936 421.753 378.261L385.455 304.694C379.69 293.023 364.3 283.463 351.248 283.463H221.405V490.973H285.035Z" fill="#004178"/>
<path d="M304.058 490.945C304.058 514.621 317.99 526.459 335.244 526.459C352.441 526.459 366.429 514.621 366.429 490.945H304.058Z" fill="#4D4D64"/>
<path d="M431.507 460.085C417.935 460.085 411.161 452.104 411.161 442.269C411.161 432.431 417.935 424.467 431.507 424.467V460.085Z" fill="white"/>
<path d="M302.858 460.085C316.419 460.085 323.204 452.104 323.204 442.269C323.204 432.431 316.416 424.467 302.858 424.467V460.085Z" fill="white"/>
<path d="M366.404 490.973C366.404 514.645 352.441 526.48 335.223 526.48L357.938 525.905C375.171 525.905 387.399 514.645 387.399 490.973H366.404Z" fill="#373750"/>
<path d="M260.544 490.973C260.544 514.645 246.577 526.48 229.359 526.48L252.077 525.905C269.296 525.905 281.535 514.645 281.535 490.973H260.544Z" fill="#373750"/>
<path d="M82.5311 490.973C82.5311 514.645 68.5753 526.48 51.3599 526.48C34.1271 526.48 20.1748 514.645 20.1748 490.973H82.5311Z" fill="#4D4D64"/>
<path d="M82.531 490.973C82.531 514.645 68.5752 526.48 51.3599 526.48L74.0787 525.905C91.2975 525.905 103.526 514.645 103.526 490.973H82.531Z" fill="#373750"/>
<path d="M176.868 283.463H221.866C234.918 283.463 250.294 293.023 256.063 304.694L292.364 378.261C298.129 389.936 302.854 410.145 302.854 423.171V467.297C302.854 480.312 292.175 490.973 279.141 490.973H176.868V283.463Z" fill="#004178"/>
<path d="M229.359 455.455C246.577 455.455 260.544 467.297 260.544 490.973C260.544 514.645 246.577 526.48 229.359 526.48C212.14 526.48 198.188 514.645 198.188 490.973C198.188 467.297 212.14 455.455 229.359 455.455Z" fill="#4D4D64"/>
<path opacity="0.6" d="M229.359 514.645C241.636 514.645 248.685 506.012 248.685 490.973C248.685 475.916 241.636 467.297 229.359 467.297C217.085 467.297 210.046 475.916 210.046 490.973C210.046 506.012 217.088 514.645 229.359 514.645Z" fill="#E8E7EF"/>
<path opacity="0.6" d="M315.917 490.945C315.917 506.044 322.97 514.621 335.244 514.621C347.517 514.621 354.57 506.044 354.57 490.945H315.917Z" fill="#E8E7EF"/>
<path opacity="0.6" d="M32.0298 490.945C32.0298 506.044 39.0827 514.621 51.36 514.621C63.6337 514.621 70.6832 506.044 70.6832 490.945H32.0298Z" fill="#E8E7EF"/>
<path opacity="0.6" d="M401.864 375.035C408.383 375.035 411.36 370.266 408.474 364.417L384.251 315.319C381.369 309.484 373.677 304.694 367.148 304.694H274.44C267.921 304.694 264.944 309.48 267.827 315.319L292.053 364.417C294.936 370.262 302.624 375.035 309.157 375.035H401.864Z" fill="#00A5E6"/>
<path opacity="0.6" d="M270.28 375.035C276.81 375.035 279.787 370.266 276.904 364.417L252.671 315.319C249.798 309.484 242.1 304.694 235.581 304.694H200.585C194.066 304.694 188.726 310.024 188.726 316.532V363.197C188.726 369.705 194.062 375.032 200.585 375.032H270.28V375.035Z" fill="#00A5E6"/>
<path d="M413.719 490.367L401.805 469.516C398.563 463.865 390.585 459.228 384.066 459.228H353.01C346.488 459.228 338.51 463.862 335.278 469.516L323.35 490.367H413.719Z" fill="#00A5E6"/>
<g opacity="0.6">
<mask id="mask0" mask-type="alpha" maskUnits="userSpaceOnUse" x="120" y="275" width="29" height="129">
<g opacity="0.6">
<g opacity="0.6">
<path opacity="0.6" d="M120.291 391.904C120.291 398.408 125.63 403.738 132.146 403.738H136.592C143.114 403.738 148.45 398.408 148.45 391.904V287.592C148.45 281.08 143.114 275.75 136.592 275.75H132.146C125.627 275.75 120.291 281.08 120.291 287.592V391.904Z" fill="url(#paint0_linear)"/>
</g>
</g>
</mask>
<g mask="url(#mask0)">
<path opacity="0.6" d="M120.291 391.904C120.291 398.408 125.63 403.738 132.146 403.738H136.592C143.114 403.738 148.45 398.408 148.45 391.904V287.592C148.45 281.08 143.114 275.75 136.592 275.75H132.146C125.627 275.75 120.291 281.08 120.291 287.592V391.904Z" fill="url(#paint1_linear)"/>
</g>
</g>
<g opacity="0.6">
<mask id="mask1" mask-type="alpha" maskUnits="userSpaceOnUse" x="46" y="275" width="29" height="129">
<g opacity="0.6">
<g opacity="0.6">
<path opacity="0.6" d="M46.2053 391.904C46.2053 398.408 51.5413 403.738 58.0638 403.738H62.5098C69.0288 403.738 74.3683 398.408 74.3683 391.904V287.592C74.3683 281.08 69.0288 275.75 62.5098 275.75H58.0638C51.5448 275.75 46.2053 281.08 46.2053 287.592V391.904Z" fill="url(#paint2_linear)"/>
</g>
</g>
</mask>
<g mask="url(#mask1)">
<path opacity="0.6" d="M46.2053 391.904C46.2053 398.408 51.5413 403.738 58.0638 403.738H62.5098C69.0288 403.738 74.3683 398.408 74.3683 391.904V287.592C74.3683 281.08 69.0288 275.75 62.5098 275.75H58.0638C51.5448 275.75 46.2053 281.08 46.2053 287.592V391.904Z" fill="url(#paint3_linear)"/>
</g>
</g>
<path d="M278.886 380.505V361.201C278.886 354.69 273.557 349.363 267.028 349.363H266.47C259.94 349.363 254.611 354.69 254.611 361.201V368.667C254.611 375.189 259.937 380.508 266.47 380.508H278.886V380.505Z" fill="white"/>
<path d="M420.053 526.494C420.053 529.563 292.943 532.11 136.191 532.11C86.8584 532.11 40.4925 531.88 0.0593262 531.406V521.578C40.496 521.108 86.8619 520.868 136.191 520.868C292.943 520.864 420.053 523.407 420.053 526.494Z" fill="white"/>
<defs>
<linearGradient id="paint0_linear" x1="170.422" y1="311.816" x2="98.4159" y2="367.794" gradientUnits="userSpaceOnUse">
<stop/>
<stop offset="0.9959" stop-color="#999999"/>
</linearGradient>
<linearGradient id="paint1_linear" x1="170.422" y1="311.816" x2="98.4159" y2="367.794" gradientUnits="userSpaceOnUse">
<stop stop-color="#E8E7EF"/>
<stop offset="0.9959" stop-color="#E8E7EF"/>
</linearGradient>
<linearGradient id="paint2_linear" x1="96.3339" y1="311.816" x2="24.3285" y2="367.794" gradientUnits="userSpaceOnUse">
<stop/>
<stop offset="0.9959" stop-color="#999999"/>
</linearGradient>
<linearGradient id="paint3_linear" x1="96.3339" y1="311.816" x2="24.3285" y2="367.794" gradientUnits="userSpaceOnUse">
<stop stop-color="#E8E7EF"/>
<stop offset="0.9959" stop-color="#E8E7EF"/>
</linearGradient>
</defs>
</svg>
