<svg width="84" height="57" viewBox="0 0 84 57" fill="none" xmlns="http://www.w3.org/2000/svg">
<path d="M6.33446 7.25025C6.33446 8.02219 6.06257 8.63039 5.51879 9.07483C4.97881 9.51928 4.22589 9.74151 3.26001 9.74151C2.37019 9.74151 1.58304 9.56997 0.89856 9.22688V7.54265C1.46135 7.79997 1.93669 7.98126 2.32456 8.08652C2.71623 8.19178 3.07368 8.24442 3.39691 8.24442C3.78478 8.24442 4.08139 8.16839 4.28673 8.01634C4.49588 7.8643 4.60045 7.63817 4.60045 7.33797C4.60045 7.17033 4.55482 7.02218 4.46355 6.89352C4.37229 6.76097 4.2373 6.63426 4.05857 6.5134C3.88365 6.39254 3.5243 6.19956 2.98052 5.93445C2.47096 5.68883 2.08879 5.45296 1.83401 5.22684C1.57924 5.00071 1.37579 4.73755 1.22369 4.43736C1.07158 4.13716 0.995527 3.78628 0.995527 3.38471C0.995527 2.62837 1.2446 2.03382 1.74275 1.60107C2.2447 1.16831 2.93679 0.951935 3.819 0.951935C4.25251 0.951935 4.66509 1.00457 5.05677 1.10983C5.45225 1.2151 5.86483 1.36325 6.29453 1.55428L5.72414 2.96365C5.27922 2.77652 4.91037 2.64591 4.61756 2.57184C4.32856 2.49776 4.04336 2.46072 3.76196 2.46072C3.42733 2.46072 3.17065 2.54065 2.99192 2.70049C2.8132 2.86034 2.72384 3.06892 2.72384 3.32623C2.72384 3.48608 2.75996 3.62643 2.83221 3.74729C2.90446 3.86425 3.01854 3.97926 3.17445 4.09232C3.33416 4.20148 3.70873 4.40032 4.29814 4.68882C5.07768 5.07089 5.61196 5.45491 5.90096 5.84088C6.18996 6.22295 6.33446 6.69274 6.33446 7.25025Z" fill="white"/>
<path d="M14.6338 1.07474V6.60697C14.6338 7.23856 14.495 7.79217 14.2174 8.26781C13.9436 8.74345 13.5462 9.10797 13.0252 9.36139C12.5043 9.6148 11.8882 9.74151 11.1772 9.74151C10.1048 9.74151 9.27202 9.4608 8.6788 8.89939C8.08559 8.33409 7.78898 7.56215 7.78898 6.58358V1.07474H9.55151V6.30872C9.55151 6.9676 9.6808 7.45103 9.93938 7.75903C10.198 8.06703 10.6258 8.22102 11.2228 8.22102C11.8008 8.22102 12.2191 8.06703 12.4777 7.75903C12.74 7.44714 12.8712 6.9598 12.8712 6.29703V1.07474H14.6338Z" fill="white"/>
<path d="M18.444 5.09818H19.0258C19.5696 5.09818 19.9765 4.98902 20.2465 4.77069C20.5165 4.54847 20.6515 4.22683 20.6515 3.80577C20.6515 3.38081 20.5374 3.06697 20.3092 2.86424C20.0849 2.66151 19.7312 2.56014 19.2483 2.56014H18.444V5.09818ZM22.4368 3.74144C22.4368 4.66153 22.1554 5.36524 21.5926 5.85258C21.0336 6.33991 20.237 6.58358 19.2027 6.58358H18.444V9.62455H16.6758V1.07474H19.3396C20.3511 1.07474 21.1192 1.29892 21.644 1.74727C22.1725 2.19172 22.4368 2.85644 22.4368 3.74144Z" fill="white"/>
<path d="M25.7794 5.09818H26.3612C26.905 5.09818 27.3118 4.98902 27.5818 4.77069C27.8518 4.54847 27.9868 4.22683 27.9868 3.80577C27.9868 3.38081 27.8727 3.06697 27.6446 2.86424C27.4202 2.66151 27.0666 2.56014 26.5836 2.56014H25.7794V5.09818ZM29.7722 3.74144C29.7722 4.66153 29.4908 5.36524 28.928 5.85258C28.369 6.33991 27.5723 6.58358 26.538 6.58358H25.7794V9.62455H24.0111V1.07474H26.6749C27.6864 1.07474 28.4545 1.29892 28.9793 1.74727C29.5079 2.19172 29.7722 2.85644 29.7722 3.74144Z" fill="white"/>
<path d="M31.3465 9.62455V1.07474H33.1147V8.12746H36.4972V9.62455H31.3465Z" fill="white"/>
<path d="M40.547 4.59525L42.2867 1.07474H44.1918L41.4254 6.29703V9.62455H39.6686V6.35551L36.9021 1.07474H38.8187L40.547 4.59525Z" fill="white"/>
<path d="M51.8181 2.46072C51.1526 2.46072 50.6374 2.71804 50.2723 3.23266C49.9072 3.74339 49.7247 4.45685 49.7247 5.37304C49.7247 7.27949 50.4225 8.23272 51.8181 8.23272C52.4037 8.23272 53.1129 8.08262 53.9457 7.78242V9.30291C53.2612 9.59531 52.4969 9.74151 51.6527 9.74151C50.4396 9.74151 49.5118 9.36529 48.8691 8.61284C48.2265 7.8565 47.9051 6.77266 47.9051 5.36134C47.9051 4.47244 48.063 3.69466 48.3786 3.02798C48.6942 2.35741 49.1467 1.84473 49.7361 1.48995C50.3293 1.13127 51.0233 0.951935 51.8181 0.951935C52.628 0.951935 53.4418 1.15272 54.2594 1.55428L53.689 3.02798C53.3772 2.87593 53.0635 2.74338 52.7478 2.63032C52.4322 2.51725 52.1223 2.46072 51.8181 2.46072Z" fill="white"/>
<path d="M62.5587 9.62455H60.7962V5.93445H57.4936V9.62455H55.7253V1.07474H57.4936V4.42566H60.7962V1.07474H62.5587V9.62455Z" fill="white"/>
<path d="M69.7742 9.62455L69.1696 7.58944H66.1294L65.5248 9.62455H63.6196L66.5629 1.03966H68.7247L71.6794 9.62455H69.7742ZM68.7475 6.06895C68.1885 4.22488 67.8729 3.18198 67.8007 2.94026C67.7322 2.69854 67.6828 2.50751 67.6524 2.36716C67.5269 2.86619 67.1675 4.10012 66.5743 6.06895H68.7475Z" fill="white"/>
<path d="M72.7346 9.62455V1.07474H74.5029V9.62455H72.7346Z" fill="white"/>
<path d="M84 9.62455H81.7526L78.1249 3.15664H78.0735C78.1458 4.29895 78.1819 5.11378 78.1819 5.60111V9.62455H76.6019V1.07474H78.8322L82.4542 7.47833H82.4941C82.4371 6.3672 82.4086 5.58162 82.4086 5.12157V1.07474H84V9.62455Z" fill="white"/>
<g clip-path="url(#clip0)">
<path d="M69.9775 17.8357C63.6122 18.0429 60.8015 22.2297 59.9541 23.5355C57.2984 27.6704 56.9058 32.5412 56.9058 35.8885C56.9058 42.3759 58.0321 46.7181 60.2848 49.7546C63.8292 54.615 68.4482 54.6668 70.1429 54.6668C81.1273 54.6668 84 44.3553 84 36.303C84 31.225 82.698 17.4211 69.9775 17.8357ZM74.3073 45.2466C73.5736 47.029 72.5092 48.1794 70.4736 48.1794C65.9165 48.1794 65.2345 41.6919 65.2345 37.6088C65.2345 29.6084 66.4125 24.5304 70.1945 24.3749C71.7136 24.3231 72.9019 25.0589 73.7389 26.4683C75.0926 28.6653 75.5369 32.9039 75.5369 36.4067C75.5473 39.4949 75.1546 43.0495 74.3073 45.2466Z" fill="white"/>
<path d="M13.96 24.3749C15.758 24.3749 17.928 25.5771 17.928 28.5721C17.928 28.9555 17.928 32.0023 14.7763 32.7692C13.9083 32.9868 12.9887 32.935 12.0586 32.8728V39.1426C14.177 39.0286 18.6927 38.811 18.6927 43.8268C18.6927 44.1792 18.6617 44.5211 18.6307 44.8424C20.5114 43.4537 22.7434 41.3811 25.1924 38.3135C24.4794 37.557 23.6011 36.9352 22.5574 36.5207C21.8547 36.2512 21.1417 36.0854 20.4391 35.9196C21.6377 35.4325 22.8261 34.9351 23.7561 34.1164C25.3888 32.8106 26.5254 30.4064 26.5254 27.6808C26.5254 24.9035 25.3888 22.1261 23.2084 20.3229C21.7411 19.0689 19.137 17.7632 14.518 17.7632C13.0507 17.7632 8.86562 17.815 5.71392 20.3747C3.03757 22.5821 2.00422 25.5252 1.62189 28.9555L10.209 29.7224C10.209 28.1368 10.209 24.3749 13.96 24.3749Z" fill="white"/>
<path d="M38.6156 25.888C39.5146 24.6858 40.9199 24.0537 42.2116 24.0537C43.8443 24.0537 45.1876 25.0485 45.5803 26.5616C45.7457 27.1419 45.694 27.7119 45.694 28.2922L54.6841 27.3492C54.2914 25.3594 53.5577 21.6494 49.569 19.2969C47.771 18.3124 45.5803 17.7321 42.935 17.7321C31.3719 17.7321 28.4888 26.0745 28.1478 34.9973C31.1445 32.1681 34.3892 30.624 37.1896 29.7742C37.4686 28.2715 37.9129 26.8621 38.6156 25.888Z" fill="white"/>
<path d="M45.4976 30.4374C45.105 30.3545 41.3746 30.1473 36.8692 31.8365C34.0482 32.8935 30.9172 34.6967 28.1065 37.7539C27.6621 38.241 27.2178 38.7591 26.7838 39.3084C26.6185 39.5157 26.4635 39.7126 26.3085 39.9095C22.5161 44.6559 19.2404 46.998 17.0084 48.1586C15.014 49.1846 13.836 49.2779 13.836 49.2779C11.3353 49.2779 9.3203 47.257 9.3203 43.8268C9.3203 43.2775 9.37197 42.7905 9.37197 42.2412L0.89856 42.9459C0.89856 45.1222 0.89856 48.8841 3.50258 51.9931C5.84827 54.7601 9.39264 55.9207 12.9887 56.014C13.0093 56.014 13.0197 56.0244 13.0403 56.0244C14.084 56.128 15.5204 56.0347 17.06 55.7238C19.2507 55.3404 21.3794 54.5424 23.1671 53.1227C23.1774 53.1123 23.1981 53.1019 23.2084 53.0916C23.3118 53.0087 23.4254 52.905 23.5598 52.8014C23.6528 52.7185 23.7561 52.6252 23.8698 52.5216C25.1615 51.3194 27.2798 49.081 29.6978 46.6663C32.6325 43.7335 36.0116 40.5624 38.8842 38.7177C38.8946 38.7177 38.8946 38.7073 38.9049 38.7073C40.3103 37.8057 41.5813 37.2254 42.6353 37.1528C43.4723 37.215 44.33 37.4741 44.95 37.9301C46.748 39.184 46.7997 41.5883 46.7997 42.5832C46.7997 43.5781 46.7997 48.283 42.1393 48.283C38.2642 48.283 37.7579 44.5211 37.7579 42.5832C37.7579 42.3863 37.7682 42.1998 37.7786 42.0132C37.7889 41.9096 37.7992 41.8163 37.7992 41.723C37.8096 41.6505 37.8096 41.578 37.8199 41.5054C37.8302 41.3914 37.8509 41.2774 37.8716 41.1634C35.4845 42.8734 32.7979 45.4642 30.3385 48.0239C31.4338 50.0551 32.8909 51.5267 34.6062 52.5838C36.9622 54.045 39.5559 54.4699 41.7466 54.4699C49.7757 54.4699 55.3971 49.9204 55.3971 42.0236C55.3971 40.552 55.1904 39.2462 54.8184 38.0959C52.7724 30.624 46.097 30.5618 45.4976 30.4374Z" fill="white"/>
</g>
<defs>
<clipPath id="clip0">
<rect width="83.1014" height="38.3545" fill="white" transform="translate(0.89856 17.7321)"/>
</clipPath>
</defs>
</svg>
