<svg width="29" height="28" viewBox="0 0 29 28" fill="none" xmlns="http://www.w3.org/2000/svg">
<path d="M27.84 2.52H21.75V0.28C21.75 0.126 21.6195 0 21.46 0H19.43C19.2705 0 19.14 0.126 19.14 0.28V2.52H9.86V0.28C9.86 0.126 9.7295 0 9.57 0H7.54C7.3805 0 7.25 0.126 7.25 0.28V2.52H1.16C0.518375 2.52 0 3.0205 0 3.64V26.88C0 27.4995 0.518375 28 1.16 28H27.84C28.4816 28 29 27.4995 29 26.88V3.64C29 3.0205 28.4816 2.52 27.84 2.52ZM26.39 25.48H2.61V12.18H26.39V25.48ZM2.61 9.8V5.04H7.25V6.72C7.25 6.874 7.3805 7 7.54 7H9.57C9.7295 7 9.86 6.874 9.86 6.72V5.04H19.14V6.72C19.14 6.874 19.2705 7 19.43 7H21.46C21.6195 7 21.75 6.874 21.75 6.72V5.04H26.39V9.8H2.61Z" fill="#ADADAD"/>
</svg>
