<svg width="29" height="29" viewBox="0 0 29 29" fill="none" xmlns="http://www.w3.org/2000/svg">
<path d="M5.92773 19.0219C5.92773 19.2565 6.11793 19.4467 6.35254 19.4467C6.58714 19.4467 6.77734 19.2565 6.77734 19.0219C6.77734 18.7872 6.58714 18.597 6.35254 18.597C6.11793 18.597 5.92773 18.7872 5.92773 19.0219Z" fill="#00A5E6"/>
<path d="M10.8516 15.0219C10.8516 14.7872 10.6614 14.597 10.4268 14.597C10.1922 14.597 10.002 14.7872 10.002 15.0219C10.002 15.2565 10.1922 15.4467 10.4268 15.4467C10.6614 15.4467 10.8516 15.2565 10.8516 15.0219Z" fill="#00A5E6"/>
<path d="M14.9238 15.0219C14.9238 14.7872 14.7336 14.597 14.499 14.597C14.2644 14.597 14.0742 14.7872 14.0742 15.0219C14.0742 15.2565 14.2644 15.4467 14.499 15.4467C14.7336 15.4467 14.9238 15.2565 14.9238 15.0219Z" fill="#00A5E6"/>
<path d="M18.998 15.0219C18.998 14.7872 18.8078 14.597 18.5732 14.597C18.3386 14.597 18.1484 14.7872 18.1484 15.0219C18.1484 15.2565 18.3386 15.4467 18.5732 15.4467C18.8078 15.4467 18.998 15.2565 18.998 15.0219Z" fill="#00A5E6"/>
<path d="M23.0723 15.0219C23.0723 14.7872 22.8821 14.597 22.6475 14.597C22.4129 14.597 22.2227 14.7872 22.2227 15.0219C22.2227 15.2565 22.4129 15.4467 22.6475 15.4467C22.8821 15.4467 23.0723 15.2565 23.0723 15.0219Z" fill="#00A5E6"/>
<path d="M8.65416 13.2858C8.65416 13.0512 8.46396 12.861 8.22936 12.861H5.53004C4.33849 12.861 3.36914 13.8304 3.36914 15.0219C3.36914 16.2134 4.33849 17.1828 5.53004 17.1828H23.4689C24.6605 17.1828 25.6298 16.2134 25.6298 15.0219C25.6298 13.8304 24.6605 12.861 23.4689 12.861H10.0807C9.84611 12.861 9.65591 13.0512 9.65591 13.2858C9.65591 13.5205 9.84611 13.7106 10.0807 13.7106H23.4689C24.192 13.7106 24.7802 14.2988 24.7802 15.0219C24.7802 15.7449 24.192 16.3331 23.4689 16.3331H5.53004C4.80696 16.3331 4.21875 15.7449 4.21875 15.0219C4.21875 14.2988 4.80696 13.7106 5.53004 13.7106H8.22936C8.46396 13.7106 8.65416 13.5204 8.65416 13.2858Z" fill="#00A5E6"/>
<path d="M24.7668 10.6432V2.2934C24.7668 1.9087 24.4538 1.5957 24.069 1.5957H15.5712C15.1865 1.5957 14.8735 1.9087 14.8735 2.2934V10.6394H14.1266V2.2934C14.1266 1.9087 13.8136 1.5957 13.4288 1.5957H4.93096C4.54626 1.5957 4.23321 1.9087 4.23321 2.2934V4.91575C4.23321 5.15041 4.42341 5.34055 4.65801 5.34055C4.89262 5.34055 5.08282 5.15041 5.08282 4.91575V2.44531H7.63493V3.96929C7.63493 4.14833 7.72561 4.31185 7.87741 4.40672C7.96124 4.45906 8.0556 4.48551 8.15042 4.48551C8.22739 4.48551 8.30465 4.46806 8.3767 4.43294L9.17992 4.04156L9.98291 4.43283C10.1438 4.51145 10.3305 4.50165 10.4823 4.40672C10.6342 4.31185 10.7248 4.14833 10.7248 3.96929V2.44531H13.2769V10.6394H5.08282V6.76711C5.08282 6.53244 4.89262 6.3423 4.65801 6.3423C4.42341 6.3423 4.23321 6.53244 4.23321 6.76711V10.6432C1.88568 10.7223 0 12.6554 0 15.0219C0 17.4384 1.96594 19.4043 4.38246 19.4043H19.0577C19.2923 19.4043 19.4825 19.2142 19.4825 18.9795C19.4825 18.7449 19.2923 18.5547 19.0577 18.5547H4.38246C2.43441 18.5547 0.849609 16.9699 0.849609 15.0219C0.849609 13.0738 2.43441 11.489 4.38246 11.489H24.6175C26.5655 11.489 28.1504 13.0738 28.1504 15.0219C28.1504 16.9699 26.5655 18.5547 24.6175 18.5547H20.9091C20.6745 18.5547 20.4843 18.7449 20.4843 18.9795C20.4843 19.2142 20.6745 19.4043 20.9091 19.4043H24.6175C27.034 19.4043 29 17.4384 29 15.0219C29 12.6554 27.1143 10.7223 24.7668 10.6432ZM9.87518 3.43522L9.4617 3.23369C9.28261 3.14635 9.07717 3.1463 8.89824 3.23358L8.48454 3.43522V2.44531H9.87518V3.43522ZM19.1248 2.44531H20.5155V3.43522L20.102 3.23369C19.9229 3.14635 19.7175 3.1463 19.5385 3.23358L19.1248 3.43522V2.44531ZM15.7231 2.44531H18.2752V3.96929C18.2752 4.14833 18.3658 4.31185 18.5177 4.40672C18.6015 4.45906 18.6959 4.48551 18.7907 4.48551C18.8677 4.48551 18.9449 4.46806 19.017 4.43294L19.8202 4.04156L20.6232 4.43283C20.7841 4.51145 20.9708 4.50165 21.1226 4.40672C21.2744 4.31185 21.3651 4.14833 21.3651 3.96929V2.44531H23.9172V10.6394H15.7231V2.44531Z" fill="#00A5E6"/>
</svg>
