<svg width="14" height="11" viewBox="0 0 14 11" fill="none" xmlns="http://www.w3.org/2000/svg">
<path d="M13.5 0H0.5C0.223437 0 0 0.223437 0 0.5V10.5C0 10.7766 0.223437 11 0.5 11H13.5C13.7766 11 14 10.7766 14 10.5V0.5C14 0.223437 13.7766 0 13.5 0ZM12.875 9.875H1.125V1.125H12.875V9.875ZM2.57969 8.58906C2.62813 8.6375 2.70781 8.6375 2.75625 8.58906L5.45156 5.89375L7.23906 7.68281C7.2875 7.73125 7.36719 7.73125 7.41562 7.68281L12.0562 3.03906C12.1047 2.99062 12.1047 2.91094 12.0562 2.8625L11.4812 2.2875C11.4578 2.26424 11.426 2.25119 11.393 2.25119C11.3599 2.25119 11.3282 2.26424 11.3047 2.2875L7.32812 6.26562L5.54063 4.47656C5.51713 4.4533 5.48541 4.44025 5.45234 4.44025C5.41928 4.44025 5.38756 4.4533 5.36406 4.47656L2.00625 7.83594C1.98299 7.85943 1.96994 7.89116 1.96994 7.92422C1.96994 7.95728 1.98299 7.98901 2.00625 8.0125L2.57969 8.58906Z" fill="white"/>
</svg>
