<!-- <svg height="512pt" viewBox="-92 0 512 512.00037" width="512pt" xmlns="http://www.w3.org/2000/svg"><path d="m327.203125 163.601562c0-89.398437-71.703125-162.046874-160.734375-163.5781245-89.523438-1.5351565-164.203125 69.9375005-166.4179688 159.4492185-1.4609372 59.019532 28.4648438 111.570313 74.7460938 141.539063 6.117187 3.960937 11.398437 9.085937 15.351563 15.210937 18.71875 28.988282 37.183593 60.105469 56.367187 114.980469 5.660156 16.195313 28.523437 16.164063 34.183594-.03125 25.058593-71.695313 58.523437-118.351563 57.832031-117.285156 2.972656-4.578125 6.878906-8.484375 11.507812-11.371094 46.363282-28.910156 77.164063-80.359375 77.164063-138.914063zm0 0" fill="#f25c5c"/><path d="m163.601562 275.40625c-62.792968 0-113.882812-51.085938-113.882812-113.882812 0-62.792969 51.089844-113.882813 113.882812-113.882813 62.792969 0 113.882813 51.089844 113.882813 113.882813 0 62.796874-51.089844 113.882812-113.882813 113.882812zm0 0" fill="#00c3ff"/><path d="m80.628906 161.523438c0-57.554688 42.914063-105.265626 98.425782-112.828126-5.054688-.691406-10.210938-1.054687-15.453126-1.054687-62.792968 0-113.882812 51.085937-113.882812 113.878906 0 62.796875 51.089844 113.882813 113.882812 113.882813 5.242188 0 10.398438-.363282 15.453126-1.050782-55.511719-7.5625-98.425782-55.273437-98.425782-112.828124zm0 0" fill="#00aaf0"/><path d="m185.914062 489.6875c0 12.324219-9.988281 22.3125-22.3125 22.3125-12.324218 0-22.3125-9.988281-22.3125-22.3125s9.988282-22.3125 22.3125-22.3125c12.324219 0 22.3125 9.988281 22.3125 22.3125zm0 0" fill="#f25c5c"/><path d="m177.421875 431.203125c-19.179687-54.875-37.648437-85.992187-56.363281-114.980469-3.953125-6.125-9.234375-11.25-15.355469-15.210937-46.277344-29.96875-76.203125-82.519531-74.742187-141.539063 2.058593-83.363281 66.984374-151.074218 148.207031-158.738281-4.1875-.394531-8.421875-.6367188-12.699219-.7109375-89.523438-1.5351565-164.203125 69.9375005-166.4179688 159.4492185-1.4609372 59.019532 28.4648438 111.570313 74.7460938 141.539063 6.117187 3.960937 11.398437 9.085937 15.351563 15.210937 18.71875 28.988282 37.183593 60.105469 56.367187 114.980469 5.214844 14.921875 25.023437 16.058594 32.535156 3.476563-.632812-1.0625-1.1875-2.214844-1.628906-3.476563zm0 0" fill="#e54a4a"/><path d="m168.074219 489.6875c0-7.296875 3.503906-13.777344 8.921875-17.847656-3.734375-2.804688-8.367188-4.464844-13.394532-4.464844-12.324218 0-22.3125 9.988281-22.3125 22.3125 0 12.320312 9.988282 22.3125 22.3125 22.3125 5.027344 0 9.664063-1.664062 13.394532-4.46875-5.417969-4.070312-8.921875-10.546875-8.921875-17.84375zm0 0" fill="#e54a4a"/><path d="m271.304688 124.511719-81.1875 81.1875c-9.4375-9.4375-19.394532-19.394531-29.441407-29.445313 15.84375-23.8125 15.847657-55.171875-.003906-78.988281l42.523437-42.519531c-10.46875-3.894532-21.660156-6.292969-33.3125-6.929688-32.875 32.875-65.792968 65.792969-68.824218 68.824219-10.082032-10.082031-19.070313-19.070313-26.289063-26.289063-6.097656 7.59375-11.242187 15.980469-15.253906 24.984376 25.128906 25.128906 61.832031 61.832031 61.914063 61.917968l-50.453126 50.453125c5.554688 7.75 12.058594 14.773438 19.332032 20.90625l51.242187-51.242187c.003907.003906 38.503907 38.503906 38.503907 38.507812 2.945312 2.941406 16.980468 16.976563 29.734374 29.730469 9-4.011719 17.390626-9.15625 24.984376-15.253906-6.714844-6.71875-15.09375-15.09375-24.539063-24.539063l67.210937-67.210937c-.300781-11.902344-2.441406-23.359375-6.140624-34.09375zm-131.445313 30.925781c-6.8125-6.808594-11.960937-11.960938-18.679687-18.679688 11.179687-11.179687 8.820312-8.820312 18.679687-18.675781 5.652344 11.71875 5.660156 25.628907 0 37.355469zm0 0" fill="#e4eaf8"/><g fill="#d8dce5"><path d="m82.921875 138.742188c2.140625-10.492188 5.722656-20.46875 10.539063-29.703126-7.015626-7.015624-13.339844-13.339843-18.691407-18.6875-6.652343 8.285157-12.484375 18.296876-15.253906 24.984376 7.230469 7.226562 15.410156 15.410156 23.40625 23.40625zm0 0"/><path d="m90.3125 248.613281 15.609375-15.609375c-6.121094-7.570312-11.285156-15.933594-15.324219-24.914062l-19.617187 19.617187c4.660156 6.996094 12.945312 15.523438 19.332031 20.90625zm0 0"/></g></svg> -->
<svg width="2481" height="2073" xmlns="http://www.w3.org/2000/svg">
 <title>orange pin</title>
 <defs>
  <filter id="svg_3_blur" width="200%" height="200%" y="-50%" x="-50%">
   <feGaussianBlur stdDeviation="7.7"/>
  </filter>
 </defs>
 <g>
  <title>Layer 1</title>
  <path id="svg_2" clip-rule="evenodd" fill="red" fill-rule="evenodd" stroke-miterlimit="10" stroke-width="37" d="m730.940002,1839.630005c-38.765991,-190.300049 -107.116028,-348.670044 -189.903015,-495.440063c-61.406982,-108.869995 -132.543976,-209.359985 -198.363983,-314.939941c-21.972015,-35.242981 -40.93399,-72.476013 -62.046997,-109.052979c-42.216003,-73.137024 -76.444,-157.934998 -74.269012,-267.932007c2.125,-107.473022 33.208008,-193.684021 78.029999,-264.172028c73.718994,-115.934998 197.201019,-210.988983 362.884003,-235.968994c135.466003,-20.423996 262.474976,14.082001 352.54303,66.748001c73.596008,43.03801 130.596008,100.526993 173.915955,168.280014c45.219971,70.716003 76.359985,154.259979 78.969971,263.231964c1.340088,55.830017 -7.799927,107.532043 -20.679932,150.41803c-13.030029,43.408997 -33.98999,79.695007 -52.640015,118.453979c-36.410034,75.658997 -82.050049,144.984009 -127.859985,214.343994c-136.437012,206.609985 -264.496033,417.310059 -320.580017,706.030029z"/>
  <circle id="svg_4" clip-rule="evenodd" fill="black" fill-rule="evenodd" cx="729.546" cy="651.047" r="183.333"/>
  <path id="svg_3" opacity="0.25" clip-rule="evenodd" fill="black" fill-rule="evenodd" d="m731.379028,1838.955444c131.603943,-120.869995 211.313965,-235.97998 269.140991,-350.48999c42.890015,-84.950073 70.540039,-169.170044 106.949951,-254.060059c12.160034,-28.339966 28.51001,-56.569946 42.52002,-85.299927c28.02002,-57.450073 72.660034,-118.140015 169.030029,-178.100037c94.160034,-58.589966 193.949951,-93.755981 291.579956,-114.69696c160.560059,-34.442017 344.280029,-37.299011 502.589966,15.593018c129.449951,43.243958 204.680176,113.463928 233.780029,178.863892c23.780029,53.440063 21.429932,108.180054 -1.040039,163.099976c-23.459961,57.320068 -69.569824,116.070068 -161.109863,177.390015c-46.900146,31.420044 -98.900146,56.340088 -146.410034,74.869995c-48.090088,18.76001 -96.599976,30.390015 -145.330078,44.320068c-95.119995,27.189941 -192.419922,47.150024 -289.890015,67.079956c-290.319946,59.339966 -577.25,124.320068 -871.810913,261.430054z" filter="url(#svg_3_blur)"/>
 </g>
</svg>