<svg width="21" height="21" viewBox="0 0 21 21" fill="none" xmlns="http://www.w3.org/2000/svg">
<path d="M21 4.41472C21 1.98044 19.0196 0 16.5853 0C15.7498 0 14.9362 0.234609 14.2327 0.678439C14.089 0.769084 14.046 0.959068 14.1367 1.10275C14.2273 1.24642 14.4173 1.28949 14.561 1.19876C15.1661 0.817031 15.8661 0.615234 16.5853 0.615234C18.6803 0.615234 20.3848 2.31968 20.3848 4.41472C20.3848 6.50975 18.6803 8.2142 16.5853 8.2142C14.4902 8.2142 12.7858 6.50975 12.7858 4.41472C12.7858 3.54638 13.0862 2.69747 13.6318 2.02433C13.7388 1.89234 13.7185 1.69862 13.5865 1.59165C13.4546 1.48472 13.2608 1.50499 13.1538 1.63693C12.8692 1.98811 12.6426 2.38059 12.4786 2.79755H0.8384C0.376113 2.79759 0 3.17371 0 3.63599V11.5701C0 11.74 0.13773 11.8778 0.307617 11.8778C0.477504 11.8778 0.615234 11.74 0.615234 11.5701V3.63599C0.615234 3.51295 0.715353 3.41283 0.8384 3.41283H6.61529V6.89501C6.61529 7.06318 6.70044 7.21678 6.84301 7.30591C6.92172 7.35513 7.01039 7.37998 7.09952 7.37994C7.17183 7.37994 7.24443 7.36358 7.3121 7.3306L9.05018 6.4835C9.08258 6.46771 9.11974 6.46771 9.15214 6.48354L10.8902 7.3306C11.0414 7.40426 11.2167 7.39504 11.3594 7.30591C11.502 7.21678 11.5871 7.06318 11.5871 6.89501V6.12769C11.5871 5.95781 11.4493 5.82008 11.2795 5.82008C11.1096 5.82008 10.9718 5.95781 10.9718 6.12769V6.68596L9.42166 5.93049C9.21797 5.83123 8.98435 5.83123 8.78063 5.93045L7.23048 6.68592V3.41283H10.9718V4.54699C10.9718 4.71688 11.1096 4.85461 11.2795 4.85461C11.4493 4.85461 11.5871 4.71688 11.5871 4.54699V3.41283H12.2871C12.2108 3.73976 12.1705 4.07585 12.1705 4.41472C12.1705 6.84899 14.1509 8.82943 16.5852 8.82943C16.9297 8.82943 17.2651 8.78969 17.5871 8.71471V20.1616C17.5871 20.2847 17.487 20.3848 17.3639 20.3848H0.8384C0.715353 20.3848 0.615234 20.2846 0.615234 20.1616V12.9108C0.615234 12.7409 0.477504 12.6032 0.307617 12.6032C0.13773 12.6032 0 12.7409 0 12.9108V20.1616C0 20.6239 0.376113 21 0.8384 21H17.364C17.8263 21 18.2024 20.6239 18.2024 20.1616V8.52276C19.8391 7.87619 21 6.27847 21 4.41472Z" fill="#00A5E6"/>
<path d="M16.0776 5.88159C16.1356 5.93159 16.2071 5.95628 16.2785 5.95628C16.3592 5.95628 16.4396 5.9247 16.4998 5.86244L18.8848 3.39453C19.0028 3.27234 18.9995 3.0776 18.8774 2.95956C18.7552 2.84147 18.5604 2.84484 18.4424 2.96698L16.2593 5.22588L14.7605 3.9331C14.6318 3.82216 14.4376 3.83643 14.3266 3.96514C14.2157 4.0938 14.23 4.28805 14.3587 4.399L16.0776 5.88159Z" fill="#00A5E6"/>
</svg>
