<svg width="662" height="367" viewBox="0 0 662 367" fill="none" xmlns="http://www.w3.org/2000/svg">
<mask id="mask0" mask-type="alpha" maskUnits="userSpaceOnUse" x="396" y="57" width="59" height="310">
<g opacity="0.4">
<g opacity="0.4">
<path opacity="0.4" d="M454.478 366.005V88.1559C454.478 86.444 453.408 84.1393 452.102 83.0348L441.679 74.2225C440.373 73.1181 439.306 70.8133 439.306 69.1043V60.1641C439.306 58.4523 437.904 57.0543 436.194 57.0543H421.411C419.701 57.0543 418.3 58.4523 418.3 60.1641V71.4382C418.3 73.1471 417.116 75.295 415.668 76.2076L398.756 86.8829C397.308 87.7955 396.125 89.9434 396.125 91.6524V366.002H454.478V366.005Z" fill="url(#paint0_linear)"/>
</g>
</g>
</mask>
<g mask="url(#mask0)">
<path opacity="0.4" d="M454.478 366.005V88.1559C454.478 86.444 453.408 84.1393 452.102 83.0348L441.679 74.2225C440.373 73.1181 439.306 70.8133 439.306 69.1043V60.1641C439.306 58.4523 437.904 57.0543 436.194 57.0543H421.411C419.701 57.0543 418.3 58.4523 418.3 60.1641V71.4382C418.3 73.1471 417.116 75.295 415.668 76.2076L398.756 86.8829C397.308 87.7955 396.125 89.9434 396.125 91.6524V366.002H454.478V366.005Z" fill="#00A5E6"/>
</g>
<mask id="mask1" mask-type="alpha" maskUnits="userSpaceOnUse" x="204" y="57" width="63" height="310">
<g opacity="0.4">
<g opacity="0.4">
<path opacity="0.4" d="M266.337 366.005V60.1641C266.337 58.4523 264.935 57.0543 263.225 57.0543H242.606C240.896 57.0543 238.153 57.4583 236.513 57.9465L207.463 66.6571C205.826 67.1483 204.482 68.9503 204.482 70.6621V366.005H266.337Z" fill="url(#paint1_linear)"/>
</g>
</g>
</mask>
<g mask="url(#mask1)">
<path opacity="0.4" d="M266.337 366.005V60.1641C266.337 58.4523 264.935 57.0543 263.225 57.0543H242.606C240.896 57.0543 238.153 57.4583 236.513 57.9465L207.463 66.6571C205.826 67.1483 204.482 68.9503 204.482 70.6621V366.005H266.337Z" fill="#00A5E6"/>
</g>
<mask id="mask2" mask-type="alpha" maskUnits="userSpaceOnUse" x="90" y="91" width="93" height="276">
<g opacity="0.4">
<g opacity="0.4">
<path opacity="0.4" d="M182.769 366.005V189.055C182.769 187.344 181.693 185.05 180.379 183.955L175.822 180.159C174.51 179.063 172.989 176.837 172.448 175.215L168.583 163.621C168.039 162 167.6 159.273 167.6 157.561V114.793C167.6 113.081 166.419 110.928 164.977 110.006L137.404 92.3644C135.962 91.4431 133.583 91.414 132.123 92.3005L93.2343 115.901C91.7685 116.787 90.5732 118.912 90.5732 120.624V157.561C90.5732 159.273 90.5732 162.069 90.5732 163.781V366.005H182.769Z" fill="url(#paint2_linear)"/>
</g>
</g>
</mask>
<g mask="url(#mask2)">
<path opacity="0.4" d="M182.769 366.005V189.055C182.769 187.344 181.693 185.05 180.379 183.955L175.822 180.159C174.51 179.063 172.989 176.837 172.448 175.215L168.583 163.621C168.039 162 167.6 159.273 167.6 157.561V114.793C167.6 113.081 166.419 110.928 164.977 110.006L137.404 92.3644C135.962 91.4431 133.583 91.414 132.123 92.3005L93.2343 115.901C91.7685 116.787 90.5732 118.912 90.5732 120.624V157.561C90.5732 159.273 90.5732 162.069 90.5732 163.781V366.005H182.769Z" fill="#004178"/>
</g>
<mask id="mask3" mask-type="alpha" maskUnits="userSpaceOnUse" x="288" y="0" width="87" height="367">
<g opacity="0.4">
<g opacity="0.4">
<path opacity="0.4" d="M374.412 366.005V17.3961C374.412 15.6842 373.234 13.5218 371.8 12.5888L353.676 0.814913C352.242 -0.115143 349.805 -0.27209 348.261 0.463236L299.022 24.0227C297.478 24.761 296.216 26.7635 296.216 28.4754V45.0013C296.216 46.7132 295.076 48.925 293.686 49.919L290.58 52.1366C289.187 53.1306 288.047 55.3453 288.047 57.0543V366.005H374.412Z" fill="url(#paint3_linear)"/>
</g>
</g>
</mask>
<g mask="url(#mask3)">
<path opacity="0.4" d="M374.412 366.005V17.3961C374.412 15.6842 373.234 13.5218 371.8 12.5888L353.676 0.814913C352.242 -0.115143 349.805 -0.27209 348.261 0.463236L299.022 24.0227C297.478 24.761 296.216 26.7635 296.216 28.4754V45.0013C296.216 46.7132 295.076 48.925 293.686 49.919L290.58 52.1366C289.187 53.1306 288.047 55.3453 288.047 57.0543V366.005H374.412Z" fill="#00A5E6"/>
</g>
<mask id="mask4" mask-type="alpha" maskUnits="userSpaceOnUse" x="0" y="157" width="69" height="210">
<g opacity="0.4">
<g opacity="0.4">
<path opacity="0.4" d="M68.8577 366.005V160.898C68.8577 159.189 67.4559 157.791 65.7459 157.791H42.7914C41.0785 157.791 39.6796 159.189 39.6796 160.898V161.096C39.6796 162.805 38.2779 164.205 36.5678 164.205H15.9486C14.2386 164.205 12.2843 165.493 11.6038 167.063L1.23308 191.093C0.555468 192.659 0 195.348 0 197.057V366.005H68.8577Z" fill="url(#paint4_linear)"/>
</g>
</g>
</mask>
<g mask="url(#mask4)">
<path opacity="0.4" d="M68.8577 366.005V160.898C68.8577 159.189 67.4559 157.791 65.7459 157.791H42.7914C41.0785 157.791 39.6796 159.189 39.6796 160.898V161.096C39.6796 162.805 38.2779 164.205 36.5678 164.205H15.9486C14.2386 164.205 12.2843 165.493 11.6038 167.063L1.23308 191.093C0.555468 192.659 0 195.348 0 197.057V366.005H68.8577Z" fill="#004178"/>
</g>
<mask id="mask5" mask-type="alpha" maskUnits="userSpaceOnUse" x="476" y="92" width="88" height="275">
<g opacity="0.4">
<g opacity="0.4">
<path opacity="0.4" d="M476.188 366.005V128.18C476.188 126.468 477.351 124.283 478.764 123.327L493.454 113.398C494.87 112.439 496.437 110.317 496.932 108.678L500.96 95.3871C501.457 93.7508 503.263 92.4109 504.976 92.4109H547.77C549.483 92.4109 550.882 93.8118 550.882 95.5208V108.547C550.882 110.259 552.284 111.657 553.994 111.657H560.607C562.32 111.657 563.719 113.058 563.719 114.764V366.005H476.188Z" fill="url(#paint5_linear)"/>
</g>
</g>
</mask>
<g mask="url(#mask5)">
<path opacity="0.4" d="M476.188 366.005V128.18C476.188 126.468 477.351 124.283 478.764 123.327L493.454 113.398C494.87 112.439 496.437 110.317 496.932 108.678L500.96 95.3871C501.457 93.7508 503.263 92.4109 504.976 92.4109H547.77C549.483 92.4109 550.882 93.8118 550.882 95.5208V108.547C550.882 110.259 552.284 111.657 553.994 111.657H560.607C562.32 111.657 563.719 113.058 563.719 114.764V366.005H476.188Z" fill="#004178"/>
</g>
<mask id="mask6" mask-type="alpha" maskUnits="userSpaceOnUse" x="585" y="114" width="77" height="253">
<g opacity="0.4">
<g opacity="0.4">
<path opacity="0.4" d="M585.432 366.005V132.772C585.432 131.061 586.833 129.663 588.54 129.663H596.323C598.036 129.663 599.435 128.262 599.435 126.553V117.61C599.435 115.898 600.836 114.5 602.546 114.5H643.005C644.715 114.5 646.117 115.898 646.117 117.61V124.995C646.117 126.707 647.414 128.637 648.996 129.288L658.41 133.147C659.992 133.798 661.289 135.728 661.289 137.44V366.007H585.432V366.005Z" fill="#00A5E6"/>
</g>
</g>
</mask>
<g mask="url(#mask6)">
<path d="M585.432 366.005V132.772C585.432 131.061 586.833 129.663 588.54 129.663H596.323C598.036 129.663 599.435 128.262 599.435 126.553V117.61C599.435 115.898 600.836 114.5 602.546 114.5H643.005C644.715 114.5 646.117 115.898 646.117 117.61V124.995C646.117 126.707 647.414 128.637 648.996 129.288L658.41 133.147C659.992 133.798 661.289 135.728 661.289 137.44V366.007H585.432V366.005Z" fill="#00A5E6"/>
</g>
<defs>
<linearGradient id="paint0_linear" x1="454.477" y1="211.529" x2="396.123" y2="211.529" gradientUnits="userSpaceOnUse">
<stop stop-color="#808080"/>
<stop offset="1" stop-color="white"/>
</linearGradient>
<linearGradient id="paint1_linear" x1="266.336" y1="211.529" x2="204.479" y2="211.529" gradientUnits="userSpaceOnUse">
<stop stop-color="#808080"/>
<stop offset="1" stop-color="white"/>
</linearGradient>
<linearGradient id="paint2_linear" x1="182.768" y1="228.829" x2="90.5691" y2="228.829" gradientUnits="userSpaceOnUse">
<stop stop-color="#808080"/>
<stop offset="1" stop-color="white"/>
</linearGradient>
<linearGradient id="paint3_linear" x1="374.412" y1="183.003" x2="288.047" y2="183.003" gradientUnits="userSpaceOnUse">
<stop stop-color="#808080"/>
<stop offset="1" stop-color="white"/>
</linearGradient>
<linearGradient id="paint4_linear" x1="68.8583" y1="261.898" x2="0" y2="261.898" gradientUnits="userSpaceOnUse">
<stop stop-color="#808080"/>
<stop offset="1" stop-color="white"/>
</linearGradient>
<linearGradient id="paint5_linear" x1="563.718" y1="229.208" x2="476.187" y2="229.208" gradientUnits="userSpaceOnUse">
<stop stop-color="#808080"/>
<stop offset="1" stop-color="white"/>
</linearGradient>
</defs>
</svg>
