<svg width="129" height="87" viewBox="0 0 129 87" fill="none" xmlns="http://www.w3.org/2000/svg">
<path d="M8.58726 10.5918C8.58726 11.7886 8.16572 12.7316 7.32264 13.4207C6.48546 14.1097 5.31812 14.4543 3.82062 14.4543C2.44104 14.4543 1.22064 14.1883 0.159424 13.6564V11.0452C1.03198 11.4441 1.76894 11.7252 2.37029 11.8884C2.97755 12.0516 3.53174 12.1332 4.03287 12.1332C4.63422 12.1332 5.09408 12.0153 5.41245 11.7796C5.73671 11.5438 5.89884 11.1933 5.89884 10.7278C5.89884 10.4679 5.82809 10.2382 5.6866 10.0388C5.5451 9.83324 5.33581 9.63679 5.05871 9.44941C4.78751 9.26203 4.23037 8.96283 3.38729 8.5518C2.59728 8.171 2.00476 7.8053 1.60975 7.45472C1.21475 7.10414 0.899328 6.69613 0.663502 6.23071C0.427676 5.76528 0.309763 5.22127 0.309763 4.59869C0.309763 3.42605 0.695928 2.50426 1.46826 1.83332C2.24648 1.16238 3.31949 0.826904 4.68728 0.826904C5.35939 0.826904 5.99907 0.908505 6.60632 1.07171C7.21947 1.23491 7.85915 1.4646 8.52535 1.76078L7.64101 3.94588C6.95121 3.65574 6.37934 3.45325 5.92537 3.3384C5.4773 3.22356 5.03513 3.16613 4.59885 3.16613C4.08003 3.16613 3.68208 3.29005 3.40498 3.53787C3.12788 3.7857 2.98934 4.10908 2.98934 4.50802C2.98934 4.75584 3.04535 4.97345 3.15736 5.16083C3.26938 5.34216 3.44625 5.52048 3.68797 5.69577C3.93559 5.86501 4.51631 6.17328 5.43014 6.62058C6.63875 7.21294 7.46708 7.80833 7.91515 8.40673C8.36322 8.9991 8.58726 9.72746 8.58726 10.5918Z" fill="#00A5E6"/>
<path d="M21.4545 1.01731V9.59448C21.4545 10.5737 21.2393 11.432 20.8089 12.1694C20.3845 12.9069 19.7684 13.472 18.9607 13.8649C18.153 14.2578 17.1979 14.4543 16.0954 14.4543C14.4328 14.4543 13.1416 14.0191 12.2219 13.1487C11.3022 12.2722 10.8423 11.0754 10.8423 9.55822V1.01731H13.575V9.13208C13.575 10.1536 13.7754 10.9031 14.1763 11.3806C14.5772 11.8582 15.2405 12.0969 16.1661 12.0969C17.0623 12.0969 17.7108 11.8582 18.1117 11.3806C18.5185 10.8971 18.7219 10.1415 18.7219 9.11394V1.01731H21.4545Z" fill="#00A5E6"/>
<path d="M27.362 7.25525H28.264C29.1071 7.25525 29.7379 7.08601 30.1565 6.74751C30.5751 6.40298 30.7844 5.9043 30.7844 5.25149C30.7844 4.59264 30.6075 4.10606 30.2538 3.79174C29.9059 3.47743 29.3576 3.32027 28.6089 3.32027H27.362V7.25525ZM33.5524 5.15176C33.5524 6.57827 33.1161 7.6693 32.2436 8.42487C31.3769 9.18043 30.1418 9.55822 28.5381 9.55822H27.362V14.2729H24.6205V1.01731H28.7504C30.3186 1.01731 31.5096 1.36487 32.3232 2.05999C33.1426 2.74906 33.5524 3.77965 33.5524 5.15176Z" fill="#00A5E6"/>
<path d="M38.7347 7.25525H39.6367C40.4798 7.25525 41.1106 7.08601 41.5292 6.74751C41.9478 6.40298 42.1571 5.9043 42.1571 5.25149C42.1571 4.59264 41.9802 4.10606 41.6265 3.79174C41.2786 3.47743 40.7304 3.32027 39.9816 3.32027H38.7347V7.25525ZM44.9251 5.15176C44.9251 6.57827 44.4888 7.6693 43.6163 8.42487C42.7496 9.18043 41.5145 9.55822 39.9109 9.55822H38.7347V14.2729H35.9932V1.01731H40.1231C41.6913 1.01731 42.8823 1.36487 43.6959 2.05999C44.5154 2.74906 44.9251 3.77965 44.9251 5.15176Z" fill="#00A5E6"/>
<path d="M47.3659 14.2729V1.01731H50.1074V11.9518H55.3516V14.2729H47.3659Z" fill="#00A5E6"/>
<path d="M61.6304 6.47551L64.3277 1.01731H67.2814L62.9923 9.11394V14.2729H60.2685V9.20461L55.9795 1.01731H58.9509L61.6304 6.47551Z" fill="#00A5E6"/>
<path d="M79.1051 3.16613C78.0734 3.16613 77.2746 3.56507 76.7086 4.36295C76.1426 5.15478 75.8596 6.26093 75.8596 7.68139C75.8596 10.6372 76.9414 12.115 79.1051 12.115C80.0131 12.115 81.1126 11.8823 82.4038 11.4169V13.7743C81.3426 14.2276 80.1575 14.4543 78.8487 14.4543C76.968 14.4543 75.5294 13.871 74.5331 12.7044C73.5367 11.5318 73.0385 9.85137 73.0385 7.66326C73.0385 6.28511 73.2832 5.07923 73.7725 4.04561C74.2619 3.00595 74.9635 2.2111 75.8773 1.66105C76.797 1.10495 77.873 0.826904 79.1051 0.826904C80.3609 0.826904 81.6226 1.1382 82.8902 1.76078L82.0058 4.04561C81.5224 3.80988 81.036 3.60436 80.5466 3.42907C80.0573 3.25378 79.5768 3.16613 79.1051 3.16613Z" fill="#00A5E6"/>
<path d="M95.7574 14.2729H93.0248V8.5518H87.9044V14.2729H85.1629V1.01731H87.9044V6.21257H93.0248V1.01731H95.7574V14.2729Z" fill="#00A5E6"/>
<path d="M106.944 14.2729L106.007 11.1177H101.293L100.356 14.2729H97.4023L101.966 0.962906H105.317L109.898 14.2729H106.944ZM105.353 8.76034C104.486 5.90128 103.997 4.28437 103.885 3.90961C103.778 3.53485 103.702 3.23867 103.655 3.02107C103.46 3.79476 102.903 5.70786 101.983 8.76034H105.353Z" fill="#00A5E6"/>
<path d="M111.534 14.2729V1.01731H114.276V14.2729H111.534Z" fill="#00A5E6"/>
<path d="M129 14.2729H125.516L119.891 4.24508H119.812C119.924 6.01613 119.98 7.27943 119.98 8.035V14.2729H117.53V1.01731H120.988L126.603 10.9454H126.665C126.577 9.22274 126.533 8.00477 126.533 7.29152V1.01731H129V14.2729Z" fill="#00A5E6"/>
<g clip-path="url(#clip0)">
<path d="M107.26 27.0034C97.3907 27.3248 93.0329 33.816 91.7192 35.8404C87.6018 42.2513 86.993 49.8029 86.993 54.9926C86.993 65.0507 88.7393 71.7829 92.2319 76.4906C97.7271 84.0261 104.888 84.1065 107.516 84.1065C124.546 84.1065 129 68.1195 129 55.6353C129 47.7623 126.981 26.3608 107.26 27.0034ZM113.972 69.5013C112.835 72.2649 111.185 74.0484 108.029 74.0484C100.963 74.0484 99.9059 63.9903 99.9059 57.6598C99.9059 45.2558 101.732 37.3829 107.596 37.1419C109.951 37.0615 111.794 38.2023 113.091 40.3875C115.19 43.7937 115.879 50.3652 115.879 55.796C115.895 60.584 115.286 66.0951 113.972 69.5013Z" fill="#004178"/>
<path d="M20.4099 37.1419C23.1976 37.1419 26.562 39.0057 26.562 43.6492C26.562 44.2437 26.562 48.9674 21.6756 50.1564C20.3298 50.4938 18.9039 50.4135 17.4621 50.3171V60.0378C20.7464 59.861 27.7475 59.5236 27.7475 67.3002C27.7475 67.8465 27.6994 68.3767 27.6514 68.8748C30.5672 66.7217 34.0277 63.5083 37.8247 58.7524C36.7192 57.5795 35.3575 56.6154 33.7394 55.9728C32.6499 55.555 31.5445 55.2979 30.4551 55.0409C32.3135 54.2857 34.1559 53.5145 35.5978 52.2452C38.1291 50.2207 39.8914 46.4931 39.8914 42.2674C39.8914 37.9614 38.1291 33.6553 34.7487 30.8596C32.4737 28.9155 28.4364 26.891 21.275 26.891C19.0001 26.891 12.5116 26.9714 7.62518 30.94C3.47576 34.3623 1.87366 38.9254 1.28088 44.2437L14.5943 45.4326C14.5943 42.9743 14.5943 37.1419 20.4099 37.1419Z" fill="#004178"/>
<path d="M58.636 39.4877C60.0298 37.6239 62.2086 36.6438 64.2113 36.6438C66.7426 36.6438 68.8253 38.1863 69.4341 40.5321C69.6904 41.4319 69.6103 42.3156 69.6103 43.2153L83.5486 41.7532C82.9398 38.6683 81.8023 32.9162 75.6182 29.269C72.8305 27.7426 69.4341 26.8428 65.3327 26.8428C47.4053 26.8428 42.9354 39.777 42.4067 53.6109C47.0528 49.2245 52.0834 46.8305 56.4251 45.513C56.8576 43.1832 57.5465 40.9981 58.636 39.4877Z" fill="#004178"/>
<path d="M69.3059 46.5413C68.6971 46.4127 62.9136 46.0914 55.9284 48.7103C51.5547 50.3492 46.7003 53.1449 42.3426 57.8847C41.6537 58.6399 40.9648 59.4433 40.292 60.2948C40.0356 60.6162 39.7953 60.9214 39.555 61.2267C33.6753 68.5855 28.5966 72.2167 25.1361 74.0163C22.0441 75.6069 20.2177 75.7515 20.2177 75.7515C16.3406 75.7515 13.2165 72.6184 13.2165 67.3001C13.2165 66.4486 13.2966 65.6934 13.2966 64.8419L0.159424 65.9344C0.159424 69.3085 0.159424 75.141 4.19671 79.9611C7.83347 84.2511 13.3287 86.0506 18.904 86.1952C18.936 86.1952 18.952 86.2113 18.9841 86.2113C20.6022 86.372 22.8291 86.2274 25.2162 85.7453C28.6127 85.1509 31.913 83.9137 34.6846 81.7125C34.7006 81.6964 34.7327 81.6803 34.7487 81.6643C34.9089 81.5357 35.0851 81.3751 35.2934 81.2144C35.4376 81.0858 35.5978 80.9412 35.774 80.7806C37.7767 78.9168 41.061 75.4462 44.8099 71.7026C49.3598 67.1555 54.5987 62.239 59.0525 59.379C59.0685 59.379 59.0685 59.3629 59.0845 59.3629C61.2634 57.9651 63.234 57.0653 64.8681 56.9528C66.1658 57.0492 67.4956 57.4509 68.4568 58.1579C71.2445 60.102 71.3246 63.8296 71.3246 65.3721C71.3246 66.9145 71.3246 74.2091 64.0991 74.2091C58.0912 74.2091 57.3062 68.3766 57.3062 65.3721C57.3062 65.0668 57.3222 64.7776 57.3383 64.4884C57.3543 64.3277 57.3703 64.1831 57.3703 64.0385C57.3863 63.926 57.3863 63.8135 57.4023 63.7011C57.4184 63.5243 57.4504 63.3476 57.4824 63.1709C53.7816 65.822 49.6162 69.8388 45.8032 73.8074C47.5014 76.9566 49.7603 79.2381 52.4198 80.877C56.0726 83.1424 60.0939 83.8012 63.4903 83.8012C75.9386 83.8012 84.654 76.7477 84.654 64.5044C84.654 62.2229 84.3336 60.1984 83.7568 58.415C80.5847 46.8305 70.2351 46.7341 69.3059 46.5413Z" fill="#004178"/>
</g>
<defs>
<clipPath id="clip0">
<rect width="128.841" height="59.4649" fill="white" transform="translate(0.159424 26.8428)"/>
</clipPath>
</defs>
</svg>
