<svg width="23" height="20" viewBox="0 0 23 20" fill="none" xmlns="http://www.w3.org/2000/svg">
<path d="M22.081 0H7.85254C7.66643 0 7.51562 0.150848 7.51562 0.336914C7.51562 0.522981 7.66643 0.673829 7.85254 0.673829H10.3086V4.48766C10.3086 4.67183 10.4018 4.84002 10.558 4.93768C10.7142 5.03534 10.9063 5.0454 11.0718 4.96477L12.9754 4.03704C13.0109 4.0197 13.0517 4.01975 13.0871 4.03704L14.9907 4.96477C15.0649 5.00093 15.1444 5.01881 15.2236 5.01881C15.3212 5.01881 15.4183 4.99159 15.5045 4.93768C15.6607 4.84007 15.7539 4.67183 15.7539 4.48766V3.64726C15.7539 3.46119 15.6031 3.31034 15.417 3.31034C15.2309 3.31034 15.0801 3.46119 15.0801 3.64726V4.25869L13.3823 3.43123C13.1593 3.32252 12.9034 3.32247 12.6802 3.43123L10.9824 4.25869V0.673829H15.0801V1.91601C15.0801 2.10208 15.2309 2.25292 15.417 2.25292C15.6031 2.25292 15.7539 2.10208 15.7539 1.91601V0.673829H22.081C22.2158 0.673829 22.3254 0.783483 22.3254 0.918249V12.5849C22.3254 12.771 22.4762 12.9218 22.6624 12.9218C22.8485 12.9218 22.9993 12.771 22.9993 12.5849V0.918249C22.9993 0.411934 22.5873 0 22.081 0Z" fill="#00A5E6"/>
<path d="M22.6631 13.7163C22.477 13.7163 22.3262 13.8672 22.3262 14.0532V19.0177C22.3262 19.1525 22.2165 19.2621 22.0818 19.2621H3.98228C3.84752 19.2621 3.73786 19.1525 3.73786 19.0177V17.0414H4.56393C5.19176 17.0414 5.70261 16.5306 5.70261 15.9027C5.70261 15.2749 5.19181 14.764 4.56393 14.764H3.73786V14.074H6.31737C6.94524 14.074 7.45605 13.5632 7.45605 12.9354C7.45605 12.3075 6.94524 11.7967 6.31737 11.7967H3.73786V11.1066H4.56393C5.19176 11.1066 5.70261 10.5958 5.70261 9.96795C5.70261 9.34008 5.19181 8.82927 4.56393 8.82927H3.73786V8.13922H6.31737C6.94524 8.13922 7.45605 7.62842 7.45605 7.00054C7.45605 6.37267 6.94524 5.86186 6.31737 5.86186H3.73786V5.17186H4.56393C5.19176 5.17186 5.70261 4.66105 5.70261 4.03318C5.70261 3.40531 5.19181 2.8945 4.56393 2.8945H3.73786V0.918249C3.73786 0.783483 3.84752 0.673829 3.98228 0.673829H6.38493C6.57104 0.673829 6.72185 0.522981 6.72185 0.336914C6.72185 0.150848 6.57104 0 6.38493 0H3.98228C3.47597 0 3.06403 0.411934 3.06403 0.918249V2.89459H1.13868C0.510807 2.89459 0 3.40544 0 4.03327C0 4.66114 0.510807 5.17195 1.13868 5.17195H3.06403V5.86195H2.89216C2.26433 5.86195 1.75348 6.37276 1.75348 7.00063C1.75348 7.62851 2.26429 8.13931 2.89216 8.13931H3.06403V8.82936H1.13868C0.510807 8.82931 0 9.34012 0 9.96799C0 10.5959 0.510807 11.1067 1.13868 11.1067H3.06403V11.7967H2.89216C2.26433 11.7967 1.75348 12.3075 1.75348 12.9354C1.75348 13.5633 2.26429 14.0741 2.89216 14.0741H3.06403V14.7641H1.13868C0.510807 14.764 0 15.2748 0 15.9027C0 16.5306 0.510807 17.0414 1.13868 17.0414H3.06403V19.0177C3.06403 19.5241 3.47597 19.936 3.98228 19.936H22.0817C22.5881 19.936 23 19.5241 23 19.0177V14.0532C23 13.8672 22.8492 13.7163 22.6631 13.7163ZM0.673829 4.03327C0.673829 3.77695 0.882356 3.56842 1.13868 3.56842H4.56393C4.82026 3.56842 5.02878 3.77695 5.02878 4.03327C5.02878 4.28959 4.82026 4.49812 4.56393 4.49812H1.13868C0.882356 4.49812 0.673829 4.28959 0.673829 4.03327ZM2.42731 7.00063C2.42731 6.74431 2.63584 6.53578 2.89216 6.53578H6.31737C6.57369 6.53578 6.78222 6.74431 6.78222 7.00063C6.78222 7.25696 6.57369 7.46548 6.31737 7.46548H2.89216C2.63584 7.46548 2.42731 7.25691 2.42731 7.00063ZM0.673829 9.96799C0.673829 9.71167 0.882356 9.50314 1.13868 9.50314H4.56393C4.82026 9.50314 5.02878 9.71167 5.02878 9.96799C5.02878 10.2243 4.82026 10.4328 4.56393 10.4328H1.13868C0.882356 10.4328 0.673829 10.2243 0.673829 9.96799ZM2.42731 12.9354C2.42731 12.679 2.63584 12.4705 2.89216 12.4705H6.31737C6.57369 12.4705 6.78222 12.679 6.78222 12.9354C6.78222 13.1916 6.57369 13.4002 6.31737 13.4002H2.89216C2.63584 13.4002 2.42731 13.1917 2.42731 12.9354ZM0.673829 15.9027C0.673829 15.6464 0.882356 15.4379 1.13868 15.4379H4.56393C4.82026 15.4379 5.02878 15.6464 5.02878 15.9027C5.02878 16.159 4.82026 16.3676 4.56393 16.3676H1.13868C0.882356 16.3676 0.673829 16.159 0.673829 15.9027Z" fill="#00A5E6"/>
</svg>
